<svg id="Jersey" xmlns="http://www.w3.org/2000/svg" width="839.61" height="701.25" viewBox="0 0 839.61 701.25">
  <defs>
    <style>
      .cls-1 {
        stroke: #000;
      }

      .cls-1, .cls-2 {
        stroke-miterlimit: 10;
        stroke-width: 4px;
      }

      .cls-2 {
        fill: #fff;
        stroke: #fff;
      }

      #Jersey { cursor: pointer;}
      #Jersey:hover { fill: #10CAFC !important; }
    </style>
  </defs>
  <path id="jerseyPrimary" class="cls-1" d="M837.53,529.55c-20.89,82.74-102,58.64-102,58.64L617.42,166.45V639.6s-41.37,55.83-193.6,59.5S200.5,638.8,200.5,638.8l-.4-312.89V178.55L121,595.42S39.83,630.77,2.08,563.29C14.93,477.33,68,83.71,108.92,63.63s113.27-44.19,168.7-41c27.9,1.61,164.85-9.39,257.86,0C627.21,31.91,675,61.39,700.16,86.12,700.16,86.12,794.15,393.79,837.53,529.55Z"/>
  <path id="bottomStripes" class="cls-2" d="M200.46,573.27s107.32,54.28,212.92,54.28c85.95,0,204-42.59,204-42.59v34.46S517.81,660.49,415,665.31s-214.52-58.2-214.52-58.2Zm-.38-28.89s111.7,63,214.52,58.2,202.82-43.31,202.82-43.31V521.52S499,564.83,413,564.83c-105.6,0-212.92-54.29-212.92-54.29Z"/>
  <path id="leftStripes" class="cls-2" d="M10.54,504.34s23.67,23.6,56.61,32.44,65.87-4,65.87-4l-6.43,39.37s-24.1,12.85-68.28,3.21-53-35-53-35Zm6.7-46.72S26.33,483,72,492.6s70.5-3.21,70.5-3.21L149.09,450s-34,12.85-68,4S22.63,421.6,22.63,421.6Z"/>
  <path id="rightStripes" class="cls-2" d="M810.13,439.92s-3.25,25.89-40.58,42.43-62.16,7.84-62.16,7.84l-11.51-36.63s31.42,7,59-6.94,44.23-40.56,44.23-40.56Zm8.12,27.77s-17.53,28.4-45.07,42.32-58.95,6.93-58.95,6.93l11.51,36.63s24.82,8.7,62.15-7.84,42.41-43.49,42.41-43.49Z"/>
  <path id="shoulderPatches" class="cls-2" d="M260.58,21.48,376.08,23s6.94,66.6-1,70c-7,3-28.72,8.24-72,19.11C185.53,141.63,108.92,62.63,108.92,62.63,195.68,18.44,260.58,21.48,260.58,21.48Zm254-2.94L407.81,17c-1.22,0-21.73-3-25.73,11.1-.56,2-6.7,63.13-2,64,38,7,81.35,2.65,123.69,16.67,115.09,38.08,190-31.59,190-31.59C621.44,20.15,514.6,18.54,514.6,18.54Z"/>
  <path id="collar" class="cls-1" d="M491.3,25.87,412,47.81a51.54,51.54,0,0,1-27.28,0l-80.54-22V8.13a6.12,6.12,0,0,1,7.07-6.05l75.44,11.8a64.37,64.37,0,0,0,19.74,0L479.05,2.84A10.64,10.64,0,0,1,491.3,13.36Z"/>
  <path id="mainLogo" class="cls-2" d="M524.24,320.29A118.49,118.49,0,1,1,405.75,201.8,118.49,118.49,0,0,1,524.24,320.29Zm-118.65-86a86.19,86.19,0,1,0,86.19,86.19A86.19,86.19,0,0,0,405.59,234.25Zm.23,49.6a33.3,33.3,0,1,0,33.3,33.3A33.29,33.29,0,0,0,405.82,283.85Z"/>
  <defs>
    <script>
      let badge = document.querySelector("#Jersey");

      function logMyId() {
      console.log(this.id);
      }

      badge.addEventListener("click", logMyId);
    </script>
  </defs>
</svg>
