<svg id="stanleyCup" xmlns="http://www.w3.org/2000/svg" width="442.5" height="884.7" viewBox="0 0 442.5 884.7">
  <defs>
    <style>
      .cls-1 {
        stroke: #000;
      }

      .cls-1, .cls-2 {
        stroke-miterlimit: 10;
        stroke-width: 4px;
      }

      .cls-2 {
        fill: none;
        stroke: #fff;
      }

      #stanleyCup { cursor: pointer;}
      #stanleyCup:hover { fill: #10CAFC !important; }
    </style>
  </defs>
  <g id="topBowl">
    <path d="M220.15,158.46c-26.76,0-48.4-5.29-49-7.94-.06-.25.4-.51.6-.62,8.36-4.24,7.7-19,7.4-22.56,8.2,2.74,19,4.19,31.23,4.19,15.51,0,31.87-2.35,42.22-6-4.21,9.77,3.55,19.26,11.17,26.61C249.18,157.35,232.05,158.46,220.15,158.46Zm-8.46-30.3c-66.69,0-121-50.39-121.4-112.43L93,16C118.17,22,163.66,23.3,197.38,23.3c60.27,0,125.44-4.14,135.72-6.78-.4,29.76-13.08,57.7-35.77,78.72-22.88,21.2-53.26,32.89-85.54,32.92Zm-8-108.95c-41.12,0-78.31-1.42-110.56-4.24l-1-.25C101.93,10.42,148.7.5,209.74.5c42.69,0,83.31,4.79,120.81,14.23C293.7,17.54,246.55,19.21,203.66,19.21Z"/>
    <path d="M209.74,1c41.5,0,81.05,4.53,117.67,13.46-36.37,2.67-82.07,4.25-123.75,4.25-40.77,0-77.69-1.4-109.74-4.17C106.44,10,151.58,1,209.74,1M90.79,16.27l2.11.19c25.29,6.07,70.77,7.34,104.48,7.34,60.24,0,123-3.94,135.21-6.65-.57,29.39-13.18,57-35.6,77.72-22.79,21.12-53.05,32.76-85.2,32.79h-.1c-32.29,0-62.65-11.71-85.48-33-22.54-21-35.09-48.8-35.42-78.43M251.71,126.33c-3.32,9.43,3.82,18.46,11.11,25.59-14.34,5-31,6-42.67,6-26.75,0-46.84-5.18-48.48-7.44a1.82,1.82,0,0,1,.28-.17c8.14-4.13,8-17.67,7.72-22.31,8.16,2.61,18.72,4,30.68,4,15.05,0,30.93-2.21,41.36-5.7M209.74,0C146.34,0,98.39,10.74,91,14.7A.14.14,0,0,0,91,15l2,.51c35.22,3.07,73.74,4.24,110.6,4.24,50.73,0,98.32-2.21,130-4.72h0C290.38,3.78,247.34,0,209.74,0ZM333.61,15Zm0,0c0,.29,0,.57,0,.86.93-.32,1-.61,0-.86Zm-243.82.19c0,62.69,54.62,113.48,121.9,113.48h.1c67,0,121.38-50.48,121.81-112.81-7.47,2.56-72.94,7-136.22,7-41.27,0-81.61-1.87-104.32-7.33l-3.27-.29ZM253.55,124.61c-9.72,3.72-26.55,6.42-43.2,6.42-11.49,0-22.89-1.29-31.8-4.42,0,0,2.1,18.2-7.05,22.85-6,3,19.52,9.5,48.65,9.5,15.18,0,31.33-1.75,44.52-6.64-10.33-9.82-15.81-18.78-11.12-27.71Z"/>
  </g>
  <path id="topLayer" class="cls-1" d="M297.7,185.2l12.85,14.41.05,55.86s-32.83,15.62-92.17,18c-58.56,2.37-93.12-15.66-93.12-15.66V199.7l10.55-10c-2.52-13.57,6.37-26,11.63-32a6.17,6.17,0,0,1,7.6-1.25c8.22,4.62,29.17,12.86,62.86,12,36.07-.91,56.87-7,64.51-11.16,2.84-1.56,3.67-1.21,5.86,1.12C298.47,169.2,297.7,185.2,297.7,185.2Zm-172.39,82-10.23,6.07v46.19S152.15,348.85,225,345s97.13-30.39,97.13-30.39v-45l-11.51-6.08S221.15,303.67,125.31,267.21ZM112.53,328s-16.62,13.37-15.34,26.74c7.67,8.51,57.51,35.25,122.68,32.82,56.2-2.1,102.15-21.56,115-35.25-1.5-8.51-1.28-9.73-2.56-15.8-.74-3.53-3.83-8.51-6.39-12.16-14.71,10.48-69.43,32.6-111.18,31.6C189.21,355.33,144.47,353.5,112.53,328Z"/>
  <path id="bottomHalf" class="cls-1" d="M405.52,824.41s26.71,5.81,34.2,16.29c10.29,14.39-82.34,39.57-224.56,41.9C103.49,884.42,37.58,862.64,8,849.37c-8.42-3.79-8.69-14.89,3.48-20.45l30-6.71C201.55,874.61,405.52,824.41,405.52,824.41Zm-216-425.8c-58.8,0-103-39-103-39s-44.29,7.17-45.64,17.68c0,4.66-2.36,441.21,0,442.35,26.13,12.67,115.46,31.52,177.64,28,35-2,164.73-7.74,190.26-23.3,3.3-2,5.86-445.2-2.26-448.7-6.29-2.71-42.86-8-57-16-3.57-2-6.71,2.58-10,5-37.9,27.9-79.84,33.62-95,35C233.55,400.61,191.55,398.61,189.55,398.61Z"/>
  <path id="sectionLines" class="cls-2" d="M415.39,476.43S302.29,497.19,217,499.7C137.88,502,32,476.43,32,476.43m.42,85.36s105.89,25.6,185,23.27c85.3-2.51,198.4-23.27,198.4-23.27M32.4,649.07s105.89,25.6,185,23.28c85.3-2.51,198.4-23.28,198.4-23.28M32.4,729.37s105.89,25.61,185,23.28c85.3-2.51,198.4-23.28,198.4-23.28M38.55,820.61s98.79,27,177.9,24.65c85.3-2.51,198.4-23.28,198.4-23.28"/>
  <defs>
    <script>
      let badge = document.querySelector("#stanleyCup");

      function logMyId() {
      console.log(this.id);
      }

      badge.addEventListener("click", logMyId);
    </script>
  </defs>
</svg>

