<svg id="hockeyNet" xmlns="http://www.w3.org/2000/svg" width="877.64" height="653.73" viewBox="0 0 877.64 653.73">
  <defs>
    <style>
      .cls-1, .cls-2 {
        stroke: #000;
        stroke-miterlimit: 10;
      }

      .cls-1 {
        stroke-width: 11px;
      }

      .cls-2 {
        fill: none;
        stroke-width: 5px;
      }

      #hockeyNet { cursor: pointer;}
      #hockeyNet:hover { fill: #10CAFC !important; }
    </style>
  </defs>
  <path id="mainPosts" class="cls-1" d="M38,63.5s3,497.28,3,562c-16.41,17-34.41,2-34.41,2s2-518-1-567,45.5-55,45.5-55H828.47s40.39,5,42.4,35,1,596,1,596-18.17,25-43.5,2V62.5s-1.92-25-30.19-24l-734.93-2C41.55,36.5,38,63.5,38,63.5Z"/>
  <path id="bottomBar" class="cls-1" d="M30.64,588.36,88.15,547A50.16,50.16,0,0,1,117,537.84L767.63,533c13.9-.1,27.09,5.23,35.8,14.48l56.21,59.67L831.38,628.5,788.1,575.16c-9.35-11.53-24.73-18.41-41.16-18.41H126c-10.46,0-20.44,3.73-27.54,10.3L44.05,617.4Z"/>
  <path id="middleBar" class="cls-1" d="M403.64,550.5s2.57-347,5-533c33.09,0,25-5,25-5s1,429,5,538Z"/>
  <path id="Netting" class="cls-2" d="M30.64,490l362-466.53M40.14,533.26,412.64,52.5M72.14,560.26l362-466.52M132.64,550.5l294-380m-419,92,194-250m43,0-229,294m3,65,282-363m-288,438,340-438m-168,542,246-317m-203,317,209-269m-156,269,151-194m-98,194,93-120m-420-281,107-137m-106,192,145-187M425.92,486.84l362-466.53M435.42,530.07,807.92,49.31m21.5,41.23-362,466.53m60.5-9.76,294-380m-419,92,194-250m-186,294,229-294m-226,359,282-363m-288,438,340-438m-168,542,246-317m-203,317,209-269m-156,269,151-194m-98,194,93-120m-420-281,107-137m-106,192,145-187M830.64,501.5,457.92,21.08m-20,29L825.64,550.5M416.42,91.31l362,466.53m-60.5-9.76-294-380m225-158,194,250m-8,44-229-294m226,359-282-363m288,438-340-438m-78,225,246,317m-252-269,209,269m-53,0-151-194m98,194-93-120m420-281-107-137m106,192-145-187m-647,2,362,466.53m-9.5,43.23L30.93,46.08m340.5,507.76L9.43,87.31m301.5,456.77-294-380m419,92-194-250m186,294-229-294m226,359-282-363m288,438-340-438m168,542-246-317m203,317-209-269m156,269-151-194m98,194-93-120m420-281-107-137m106,192-145-187M781,548.08l66.63-82.58M24.58,506.79l55.56,53.47"/>
  <defs>
    <script>
      let badge = document.querySelector("#hockeyNet");

      function logMyId() {
      console.log(this.id);
      }

      badge.addEventListener("click", logMyId);
    </script>
  </defs>
</svg>
