<svg id="Skates" data-name="Layer 1" xmlns="http://www.w3.org/2000/svg" width="837.99" height="802" viewBox="0 0 837.99 802">
  <defs>
    <style>
      .cls-1, .cls-2, .cls-3 {
        stroke: #000;
        stroke-miterlimit: 10;
      }

      .cls-1 {
        stroke-width: 6px;
      }

      .cls-2, .cls-4 {
        fill: #fff;
      }

      .cls-2, .cls-3 {
        stroke-width: 10px;
      }

      #Skate { cursor: pointer;}
      #Skate:hover { fill: #10CAFC !important; }
    </style>
  </defs>
  <path id="skateBlade" class="cls-1" d="M25.17,722.18c632.61,14,827.75-66.94,791.11-20-36.81,47.14,29.41,88.7-317.52,95.74-325.42,6.61-467.48-18.82-479-24.78C13,769.66,7.63,759.57,4.35,751.76a17.43,17.43,0,0,1,2.5-17.65l4.32-5.4A17.47,17.47,0,0,1,25.17,722.18Z"/>
  <path id="skateHolder" class="cls-2" d="M90.74,536.09l189.14,19-36.34,95L303,686.41l177.58,3.3,67.73-16.51-51.21-98.29,283.3,29.73s25.6,33,43.77,84.25C811,732.66,689.55,746.7,670,755.79s-344.64.83-478.44,0S9,712,9,712L45.2,588.79Z"/>
  <path id="Skate" class="cls-3" d="M51.92,41.35s18.59,325-15.28,392.74c-23.12,49.55-26.43,101.59-9.08,134.62,33.86,74.34,271.73,27.26,318,38.82S500,661.22,550.38,654.61s207-14.41,232.5-16.1c16.86-1.13,49.75-47.33,50.11-99.39a88.25,88.25,0,0,0-64.91-85.44c-54.61-15.09-134.69-32.4-134.69-32.4S384,366.77,407.91,242.88s63.18-129.26,63.18-129.26,9.5-54.1-22.71-69.79S334.6,54.16,310.44,124.77c-10.73,31.39-39.64,40.47-39.64,40.47L134.93,178s-21.89,2.07-12-28.49c4.25-13.12,10.49-30.2,16.22-45.42a68.92,68.92,0,0,0-8.48-64.71C122.16,27.63,102.16,4.48,94.87,5,61,7.49,51.92,41.35,51.92,41.35Z"/>
  <path id="skateDesigns" class="cls-1" d="M210.33,702.17l26.17-26.78a4.3,4.3,0,0,1,7.05,1.37l17,41.38a4.3,4.3,0,0,1-5.35,5.72L212,709.25A4.3,4.3,0,0,1,210.33,702.17Zm68.48-1,8.28,24.35a9.76,9.76,0,0,0,7.64,6.48l28.46,4.74a4.08,4.08,0,0,0,3.84-6.6c-8.76-10.73-24.85-28.91-39.07-36.71A6.44,6.44,0,0,0,278.81,701.14Zm64.55,1.13a3.78,3.78,0,0,0-2.75,6.42c10.76,10.95,34,31.84,55.45,33.06,22.07,1.25,43-22,51.94-33.49a3.77,3.77,0,0,0-3-6.09C425.54,702.33,373,702.7,343.36,702.27Zm160.82-8.36c-14.21,7.8-30.3,26-39.06,36.71a4.08,4.08,0,0,0,3.83,6.61l28.47-4.75a9.75,9.75,0,0,0,7.63-6.48l8.28-24.35A6.44,6.44,0,0,0,504.18,693.91ZM575.57,710,549.4,683.24a4.31,4.31,0,0,0-7.06,1.36L525.3,726a4.3,4.3,0,0,0,5.36,5.71l43.21-14.61A4.3,4.3,0,0,0,575.57,710ZM80.83,625.29,51,681.94l46.39,41.74M767.1,674.09,626.23,695l34.51,23.62"/>
  <path id="laceHoles" class="cls-4" d="M321.18,240A20.24,20.24,0,1,1,301,219.75,20.24,20.24,0,0,1,321.18,240ZM301,229.4A10.59,10.59,0,1,0,311.53,240,10.59,10.59,0,0,0,301,229.4ZM322,295.18a20.24,20.24,0,1,1-20.23-20.24A20.23,20.23,0,0,1,322,295.18ZM301.8,284.59a10.59,10.59,0,1,0,10.58,10.59A10.59,10.59,0,0,0,301.8,284.59Zm45,55.19a20.24,20.24,0,1,1-20.23-20.24A20.23,20.23,0,0,1,346.81,339.78Zm-20.23-10.59a10.59,10.59,0,1,0,10.58,10.59A10.59,10.59,0,0,0,326.58,329.19Zm55.75,66.75a20.24,20.24,0,1,1-20.24-20.23A20.24,20.24,0,0,1,382.33,395.94Zm-20.24-10.58a10.59,10.59,0,1,0,10.59,10.58A10.58,10.58,0,0,0,362.09,385.36Zm74.75,56.84A20.24,20.24,0,1,1,416.6,422,20.24,20.24,0,0,1,436.84,442.2ZM416.6,431.61a10.59,10.59,0,1,0,10.59,10.59A10.59,10.59,0,0,0,416.6,431.61Zm85.49,46.1a20.24,20.24,0,1,1-20.24-20.23A20.24,20.24,0,0,1,502.09,477.71Zm-20.24-10.58a10.59,10.59,0,1,0,10.59,10.58A10.58,10.58,0,0,0,481.85,467.13ZM586,492.58a20.24,20.24,0,1,1-20.24-20.24A20.24,20.24,0,0,1,586,492.58ZM565.75,482a10.59,10.59,0,1,0,10.59,10.59A10.59,10.59,0,0,0,565.75,482Zm75.4,21a20.24,20.24,0,1,1-20.23-20.23A20.24,20.24,0,0,1,641.15,503Zm-20.23-10.58A10.59,10.59,0,1,0,631.5,503,10.59,10.59,0,0,0,620.92,492.43Zm66.79,25a20.24,20.24,0,1,1-20.24-20.23A20.24,20.24,0,0,1,687.71,517.4Zm-20.24-10.58a10.59,10.59,0,1,0,10.59,10.58A10.58,10.58,0,0,0,667.47,506.82Z"/>
  <path id="Laces" class="cls-2" d="M424.49,281.76c-18.6,13.42-80.05,25.63-97.59,26.14-24.95.74-36.18-18.13-11.58-26.92a41.32,41.32,0,0,1,16.59-2.15c39.85,2.58,84.39-23.22,84.39-23.22S419.19,256,424.49,281.76Zm12.35,12.93s-44,26.75-83.87,25a41,41,0,0,0-16.54,2.5c-24.41,9.32-12.78,27.94,12.15,26.67,17.53-.89,78.7-14.43,97-28.24C439.73,295,436.84,294.69,436.84,294.69ZM461.7,329.8S423,363.77,383.43,369a41.41,41.41,0,0,0-15.86,5.33c-22.42,13.41-7.74,29.73,16.59,24.17,17.11-3.92,75-27.84,90.65-44.61C464.6,329.62,461.7,329.8,461.7,329.8Zm38.85,26.69s-30.78,41.41-68.49,54.84a41.29,41.29,0,0,0-14.42,8.55c-19.16,17.85-1.34,30.76,21.33,20.2,15.95-7.43,67.67-43,79.48-62.75C503.35,355.7,500.55,356.49,500.55,356.49Zm41.08,18.16s-19.38,47.82-52.5,70.29a41.32,41.32,0,0,0-11.81,11.9C463.26,478.94,483.75,487,503,471c13.57-11.2,54.69-58.66,61.15-80.71C544.15,373.18,541.63,374.65,541.63,374.65Zm40.91,20.67s2,42.75-16.77,68.25a27.93,27.93,0,0,0-5.23,12.21c-3.27,20.9,16.48,22.72,26.33,5.6,6.93-12.05,22.89-59.4,20-78.56C584.06,393.58,582.54,395.32,582.54,395.32ZM636.09,404s2,42.74-16.77,68.24a28,28,0,0,0-5.23,12.21c-3.27,20.9,16.48,22.73,26.33,5.6,6.93-12,22.89-59.4,20-78.56C637.61,402.29,636.09,404,636.09,404Zm47.08,16.51s2,42.75-16.77,68.25A27.93,27.93,0,0,0,661.17,501c-3.27,20.9,16.48,22.72,26.33,5.6,6.93-12.05,22.89-59.4,20-78.56C684.69,418.81,683.17,420.55,683.17,420.55ZM416.44,211.65s-46.64,21.76-86.11,15.67a41.26,41.26,0,0,0-16.71.67c-25.28,6.59-15.77,26.37,9.15,27.85,17.52,1,79.8-5.7,99.51-17.41C419.28,212.29,416.44,211.65,416.44,211.65Z"/>
  <defs>
    <script>
      let badge = document.querySelector("#Skates");

      function logMyId() {
      console.log(this.id);
      }

      badge.addEventListener("click", logMyId);
    </script>
  </defs>
</svg>
