<svg id="Referee" xmlns="http://www.w3.org/2000/svg" width="922.44" height="577.93" viewBox="0 0 922.44 577.93">
  <defs>
    <style>
      .cls-1, .cls-4 {
        fill: #fff;
      }

      .cls-1, .cls-2, .cls-3, .cls-4, .cls-5 {
        stroke: #000;
        stroke-miterlimit: 10;
      }

      .cls-1, .cls-2, .cls-3, .cls-5 {
        stroke-width: 7px;
      }

      .cls-3 {
        fill: #fffdfd;
      }

      .cls-4 {
        stroke-width: 2px;
      }

      .cls-5 {
        fill: none;
      }

      #Outline { cursor: pointer;}
      #Outline:hover { fill: #10CAFC !important; }
    </style>
  </defs>
  <path id="Outline" class="cls-1" d="M705.71,6c27.26.83,50.19,35.73,56.51,47.37s3,86.42.11,110.57c4-2.88,16.17,8,17.28,9.09s39.28,10,77.67,18,42.88,36.4,49.36,56.34.5,74.79,1.5,82.77-20.44,75.28-17.95,93.73,27.49,73,27.49,73v71.14s-284.77,14.62-300.72,0-16.62-33.24-25.26-47.87-15.52-60-19.28-66.26-15.63-99.27-15.63-99.27-4,7-15.29-4-31.57-13.63-60.49-3.32-80.76,9.58-80.76,9.58-16.3-.57-20.29-2.57-18.28,3.29-46.54.3c-41.55-8.64-76.56-25-85.65-33s-7.31-4.43-13.07-5.54-10.19-2-15.29-5.54-10-2-15.29-2.22-2.22-2.43-7.76-6.64c-12.41-5.1-16,.22-20.83,1.55s-16.62.44-28.14,1.33a19.39,19.39,0,0,1-14-4.67.72.72,0,0,1,.79-1.2c7.11,3.72,21.25,8.16,35.6-4.33,4.66-43.43-35.45-43.65-35.45-43.65v-2.88s20.6.44,24.82-2.66,26.14-3.1,34.34-4.43c5.54-9.09,17.29-12,17.29-12,45.2.66,56.51-2.44,56.51-2.44,9.3-4.65,54.84-2.66,54.84-2.66s28.75,12.63,39.06,6,24.76-.67,24.76-.67,9-1,18.45-1c5.32-6.64,16.12-6,16.12-6,24.6-3.32,40.72,1.33,40.72,1.33s25.26-1,34.4-1c3.66-6.81,10.47-6.15,12.14-6.31s4.32-3.33,12.79-10.64c-10-64.82,4.49-85.92,4.49-85.92s7.48-7,7.15-11S530,81,536,77.64,547.15,61,553.8,51.38s33.91-31.74,42.55-34.57c6.81-6,41.88-12.8,41.88-12.8S678.45,5.18,705.71,6Z"/>
  <path id="rightHand" class="cls-1" d="M165.39,298.4c-8.15,13-32.28-1.38-32.28-1.38s-39.35,2-46-2.32S67.17,291,55.54,293s-5.65-5.65-25.93-3.14S5,291.7,3.68,284.57s4.66-6.83,14.63-8.16c-1-6.64,57.5-16.62,60.16-16.62s10-3,14-6.64,40.68-2.33,40.68-2.33C168.47,254.14,173.54,285.39,165.39,298.4Z"/>
  <path id="rightSleeve" class="cls-2" d="M198.8,236.42s48.31,42.76,0,66.25c-12.8-3.23-11.5-6.37-21-.41s-15.27-.73-15.27-.73,12-10.26,5.75-27.38-28.41-23-28.41-23-.63-2.73,7.59-3.77,25.68-7,31.44-6.13S193.26,243.73,198.8,236.42Zm8,5.43s11.3-2.33,21.27.33,30.25-11.64,35.24-11.64,37.56-2.66,46.86,0S339,229.36,339,229.36l10.74,3.51s3,4.13,13,2.73,14-8.75,19.62-6.24,82.1-3.14,82.1-3.14,29.91,3.33,38.89-2.32,12-2.66,12.63-1.67.66,14.74-4,14.19c-2.68-.32-12.61-1.89-20.56-3.17a62.1,62.1,0,0,0-21.37.31c-21.94,4.18-70.26,13.35-73.08,13.6-3.66.34-24.6,0-24.6,0h0a11.37,11.37,0,0,1-12.41,8.16c-11.59-1.53-30.22-4.49-37.11-8.49-10.31-6-42.22-4.46-53.19,2.42s-53.38,10-53.38,10Zm-5.32,54.51c-1,.66-1.88,8.63,4.44,6.64s8.86,1,11.52.85,15.29-12.15,16-11.15S242,296,258.63,294C297,314,365.82,309,365.82,309c2.82-7,27.43-11,31.76-11s104-9.31,107.36-17.28,16.29-10.64,17.95-10.17,16.29-3.46,15.62-11.33c5.32.44,21.61-18.72,20.61-30s-11.3-11.63-11.3-5.65-.67,6.65-10.3,7.65-18.29,22.93-19.95,19.37-8.31-1.09-15,2.57-72.13,19.61-97.39,18.94S373.64,276.94,371,282.4c-31.92.31-78.29-8-102.47-13.92a7.66,7.66,0,0,0-7.81,2.7c-20.48,25.75-39,11.55-39,11.55Zm351.35-24.79c.33,8.44,0,8.17-7,6.64s-4.66,7.84-6,13.16-19.61,5-32.57,5.65-78.78,17.62-93.74,25.15c-13.07-2-39.67,9.09-59.61,11.75s-89.53-12.19-89.53-12.19l-26.81-14.18s-21.72-1.77-18.17,2.88,22.28,6.38,22.28,6.38,28.69,12.46,39.1,18.88,54.52,8.64,66.7,14.85c9.53-5.54,46.32-16.84,59.17-15.73,11.52-8.42,85.09-18.62,87.53-18.18s47.42,0,47.42,0-2.21-12.4,0-12.4,8-8.2,11.08-11.31,4.21-1.1,4.21-1.1l2.26-32.58-4.53-8.66C552.81,254.67,552.47,263.12,552.81,271.57ZM400.25,356.8s53.61-12,60.48-9.81,29.47-6.87,37.23-11.08,29.25,3.33,29.25,3.33,17.29,10.41,18.17,11.3,12.41-5.1,16.18-14.63c-2.44-11.3-6.65-15.06-12-13.74s-4.43,3.77-3.54,12.64c-4.88,6.64-34.13-2-34.13-2s2.44-4.87-32.8-5.76S380,352.31,380,352.31C391.6,348.54,400.25,356.8,400.25,356.8Zm116-130.56s2.31-11.32,18-13.65c3.35-3.67,2-5.15,2-5.15s-12.58-5.54-21.55,12.27S516.21,226.24,516.21,226.24Z"/>
  <path id="Visor" class="cls-3" d="M526.86,117.53s129-.67,138.63,0,15,11.63,15,11.63v39.89s-2,5-22.61,17.28c-32.61,20.39-74,23.42-102.7,22.42a242.61,242.61,0,0,1-34.58-3.47C510.58,142,526.86,117.53,526.86,117.53Zm34.7,15.3L531.27,184m47.48-44L561,176.84M597.72,147l-11.86,22.75"/>
  <path id="Helmet" class="cls-2" d="M762.33,164s-6.76,8.59-18.23-2.38c-10.47-18.45-11-39.89-19.44-41.38s-32.41-2-33.91,7-.66,38.08-5.48,40l-4.82,1.9V129.16s-3.33-11.42-15-11.63-138.63,0-138.63,0l5.34-9.14S531,82.73,536,77.64s32.09-53.16,62.87-62.49S622,.21,692.27,5.6c21.62,1.67,28.15-3,63.17,36.86C755.44,42.46,774.57,52.16,762.33,164Zm-75.57-15.34S672.8,188,709.2,179s37.89-30.41,37.89-30.41-10-34.9-12.46-34.9-47.37,7-47.37,7Z"/>
  <path id="helmetEarhole" class="cls-4" d="M725.38,134.14c1.11,4.43-4.21,28.37-14.18,27s-3.33-23.27-3.33-23.27S724.27,129.71,725.38,134.14Z"/>
  <path id="leftArm" class="cls-5" d="M894.68,448.72S836.34,561,788.48,560.45s-39.89-26.93-72.8-43.88-46.7-54.34-52.52-59.83-29.25-30.41-31.24-43.88-5-19.56-34.91-43.93c-7.47-12.13-2.49-12.81,38.4-47,15.45-3.73,20.44,2.82,19.94,13.23s3.26,8.46,22.07,21.65,27,14.68,38.19,21.33c12.23,7.24,26.9,17.9,36.06,23.24,4,2.35,7,3.67,8.22,3.21,4-1.49,45.54-54,45.54-54s55.68-121,71.49-126,20.28-11.3,26.2,11.32,6.66,44.35,5.84,69.29-7.14,56.18-13.45,80.95S889.4,442.49,894.68,448.72Z"/>
  <path id="leftStripes" class="cls-2" d="M721.33,173.7l1.33,66.19s-6.65,38.52,29.25-2,24.6-64.16,24.6-64.16,8.55,1,17.62,11-.67,51.52,1.66,39.23,26.77-40.37,26.77-40.37,7,1.54,26.24,5.68c-15.79,4.21-33.4,38.67-33.4,38.67-14.63,11.31-49.53,136-49.53,136a13.89,13.89,0,0,1,12,1.66c5.65,4,2.66,18.94,2.66,18.94s-9,10-12.63,14-18.62,8.65-19.12,4.66S730,384.44,727.31,384.44s-10.63,2-11.7-9S732,264.62,732,264.62s-10.31-9.15-13.63-9.15-8.64,15.29-15.62,25.27-9.31,85.42-9.31,85.42-3-12-7.62-7-10.66-5.65-10.66-5.65,2-44,3.32-59.83c6-8,4-9.64,5.68-20.94-9,2.66-21-8.14-21-8.14l1.66-5.38c13.63,3.77,42.22-9.42,46.46-12.08s2.07-12.63,2.07-17.39S709.2,179,709.2,179Zm149.91,56.84c8.31-13,25.5-10.94,25.5-10.94s-.47-.9-11-13.65c-36-17.95-60.06,45.87-67,57.5s-32.57,114.68-32.57,114.68C798.21,364.71,862.93,243.51,871.24,230.54Zm38.3,38.56c1.72-6.65-4.4-26.59-4.4-26.59H887.2L871.58,269.1Zm-80.18,117c2,0,10-30.58,10.64-42.55s4-17.95,8.31-25.71c-2.66-9.75,3.65-19.16,8.64-25.48s2-9-2-8S831,327.6,822.71,333.92s-15.29,40.22-15.29,40.22S827.37,386.11,829.36,386.11Zm38.89,21.27c16.62-19.94,36.23-123.19,36.23-123.19l-25.59-2.3s2,24.77-5.32,34.74-9.31,40.56-8.31,50.86-10,30.91-10,30.91S857.28,398.74,868.25,407.38Zm-60.83-33.24L781.5,418.85s18.94,18.94,22.43,28.92,25.43-61.66,25.43-61.66Zm47.87,24.26-43.38,72.3s-93.24-76.28-122.66-79.77l-2,20.5s102.21,85.2,121.66,89.69c32.52-18.95,47.36-55.35,59.33-93.74C862.27,399.9,855.29,398.4,855.29,398.4Zm-166-7.47c1-29.64-15.09-25.77-15.09-25.77l-13.1,17.29s6.87,3.66,14.73,7.65c2.36,16.13,11.47,21.33,11.47,21.33S688.31,420.56,689.25,390.93Zm191.53,82s18.88,41.64,19.88,50.61l1,9s13,7.48,16,12.46,0-25.43,0-25.43-21.27-67-24.09-68.66S880.78,472.94,880.78,472.94ZM854.07,516.3s5.92,42.63,44.29,52.56l7.57-.36s-42.33-57.77-37.68-75.82C855.4,508.76,854.07,516.3,854.07,516.3ZM827,541.7s27.31,16.65,30.64,28.92c12.29-.51,22.27-1.76,22.27-1.76l-48.2-32.18C825.7,532.69,827,541.7,827,541.7Zm-31,17.94,7.75,12.91,24.86-.83s-9.2-20.51-12.14-21.68C813.74,551,802.65,557.61,796,559.64Zm-56.14-22.71s9.4,32.78,16.38,36.87c9.31-.2,21.53,0,21.53,0l-8-15.35S743.1,539.84,739.85,536.93Zm-54.42-44.25s12.85,52.9,27,68.62c6.2,11.25,4.65,13.13,4.65,13.13h14.4s-19.9-51.55-20.36-60.38C701.83,507.87,685.43,492.68,685.43,492.68Zm-29.22-43.1s7.28,119.62,14.6,124.08c8,.77,21.49.77,21.49.77s-3.32-54.15-10.19-67.22-4.38-27.15-4.38-27.15S665.55,453.34,656.21,449.58ZM618,504.44s-3.33,11.63.33,14.29,5.65,18.72,1.66,24.49-6.25,23.14,2.53,27.25,15,2,15,2,5.39-10,1.73-17.06-12.63-15.63-14-21.81S618,504.44,618,504.44Zm-38.3-23.1c-1.4,3.16,17,49.43,17,49.43S604,494.14,604,464.22c-5.65-4-16.28-39.89-16.28-39.89S581.06,478.18,579.66,481.34ZM557.43,359.47s9,64.1,7.35,53.29,9.63-30.64,9.63-30.64l-9.64-31.58Zm10-11.92s11.63,56.29,17.29,63.88c-2.66-24,3.9-58.9,4.44-60.89s-16.41-12.2-17.41-27.87C567.43,325.94,567.76,327.27,567.43,347.55Zm93.63,225c-2.09-1.33-19.84-39.86-23.56-46.5s-2.92-35.57-2.92-43.22-12.64-90.41-12.64-90.41-14.62-20.27-18-15.62,2,34.9,1.67,37.19,5,39.59,3.32,48.57,10,30.12,10,30.12C625.27,535.44,663.14,573.89,661.06,572.55ZM631.92,394.91a20.59,20.59,0,0,1,3.81,15.89c-1.49,9.78,18.62,21,22.61,31.93s16.46,21.49,22.11,24.48,19.28,28.42,26.75,30.42,33.41,18.94,47.87,33.4,34.4,20,39.39,20,22.93-11.47,32.52-9.28,48.48-60.24,48.48-60.24-41.11,34.61-46.1,35.61-12,11.47-12,11.47H794c-10.47-8.48-81.77-56.34-81.77-56.34-20.44-22.94-31.41-24.43-34.9-30.92s-26.43-43.37-26.43-43.37Z"/>
  <path id="leftHoles" class="cls-1" d="M759.81,281.89l18.28,2.33s-27.9,46.06-33.57,77.73c-10,0-10.64-3.94-10.64-3.94s3.32-11.63,8.64-20.27,4.65-19.62,5.65-20.94,6.65-7.32,8.31-16.62S759.81,281.89,759.81,281.89Z"/>
  <path id="leftSleeve" class="cls-2" d="M630.11,404.58s47-21.41,50.34-45c-19.53-13.44-25.6-12.44-25.1-24.47s-9-17.92-19.94-13.23S597,353.76,595.64,356.8s-3.44,14,7.69,17.34S628.76,399,630.11,404.58Z"/>
  <path id="leftHand" class="cls-1" d="M596,353.86s-20.61-5.65-24.6-33.24c-6.65-9-8.31-23.26-5-25.59a13.17,13.17,0,0,1,7.65-2s-7.65-6.66-5.32-12.47,4.65-8.8,9.31-7.14,11.3,8.47,11.3,8.47,1.72-14.12,5.18-14.12S607,266.44,608,269.1s-1-10.08,7-9.86,21.14,13.52,22.54,19.5-3.73-8,0-7.64,17.08,20.6,18.71,22.27-3.35,30.25-3.35,30.25S634.58,301.34,596,353.86Z"/>
  <path id="Face" class="cls-1" d="M705.7,219.75s-8.3,13.45-31.9,29.41a59.36,59.36,0,0,1-10.64,5.66c-22.36,9.24-48.44,5.71-45.91-1.91,3-8.88-18.41-21.89-20.93-23.14s-3.63-16.18-3.63-16.18c-5,2.33-13-5.11-13-5.11s58.29,1.63,99.64-37.85c21.41-7.55,34.9,3.41,36.3,3.07s18.27-8.64,18.27-8.64,6.56,50.19,0,60.17-43.46,39.22-70.72,30.58m-50.49-22.27s15.56-1.74,14.79-7.45a46.57,46.57,0,0,1-19.14,5.45Z"/>
  <path id="Whsitle" class="cls-2" d="M579.73,271.76s-1.33-8.64,8.64-10.64c-4.35-5.31-9.7-14.29-.36-18l13.33-14.95L613,229.77l-9,12.74s8.07,1.67,8.16,9.48S608,269.1,608,269.1s-10.58-4.91-13.43-1.33-5.18,14.12-5.18,14.12Z"/>
  <path id="Collar" class="cls-2" d="M734.51,170.39s17.73-42.23,37.35-5.33S744.6,250.82,731,255.81,725.52,234,725.52,234C748.33,199.63,734.51,170.39,734.51,170.39ZM801.11,446c2.82,1.75-22.75-35-49.44-46.62M589.17,213.91c-3.52.32-14.76-5-14.76-5l-28.77-.66,11.79,25.28,10,21.52,26.68-21.52S592.69,213.59,589.17,213.91Z"/>
  <defs>
    <script>
      let badge = document.querySelector("#Referee");

      function logMyId() {
      console.log(this.id);
      }

      badge.addEventListener("click", logMyId);
    </script>
  </defs>
</svg>
