<svg id="goalieMask" xmlns="http://www.w3.org/2000/svg" width="643.94" height="978.09" viewBox="0 0 643.94 978.09">
  <defs>
    <style>
      .cls-1, .cls-3 {
        stroke: #000;
      }

      .cls-1, .cls-2, .cls-3 {
        stroke-miterlimit: 10;
      }

      .cls-1 {
        stroke-width: 7px;
      }

      .cls-2 {
        fill: none;
        stroke: #fff;
        stroke-width: 18px;
      }

      .cls-3 {
        fill: #fff;
        stroke-width: 3px;
      }

      #Mask { cursor: pointer;}
      #Mask:hover { fill: #10CAFC !important; }
    </style>
  </defs>
  <path id="Mask" class="cls-1" d="M329.57,9.29l9.32,12a16.33,16.33,0,0,0,8.71,4c22,2.94,112.63,17.69,158.53,65.65a14.79,14.79,0,0,0,1.22,1.15,287,287,0,0,1,56.93,64.54,119.47,119.47,0,0,1,18.22,52.14c3.56,33.74,16,44.94,52.11,68,11.49,7.31,4.73,301.28-9.4,327-11.49,20.9-76.38,57.36-99.24,84.62C498.81,720.69,455.56,826,451.8,833.52c-3.14,6.26-65.89,137.89-133.72,141S186.75,832,184.37,827.25c-4.18-8.36-49.85-120.31-72.09-145.21-26.11-29.25-72.08-52.23-93-91.93C1.6,556.46,3.54,338.39,3.58,287.1c0-7.59,14.42-17.06,22-16.65,25.05,1.36,26.69-21.81,28.2-42.83,1.49-20.62,5.47-50.56,16.72-67.9,12-18.5,41.62-68.43,86.7-87.75C164.52,68.83,264,28.5,286,25.56a16.44,16.44,0,0,0,8.72-4l8.73-9.15L308,6.27a16.34,16.34,0,0,1,21.5,2.91Z"/>
  <path id="Cage" class="cls-2" d="M32.37,350.87s-1.57-44.53,22-53c23.87-8.58,124.84-40.36,207.87-46.77,82.74-6.39,203.71,12.54,344.74,47,0,0,2.53,219.56-22.56,273.67S388.24,729.87,322.17,729.17c-12.27-.13-29-4.5-48.18-11.88C189.82,684.93,58.27,594.86,48.05,552.64,33.78,493.66,32.37,350.87,32.37,350.87ZM270.73,716.08,272.82,526V374l-4.18-129.12m95.14,3.38L359.6,377.42v152l2.09,190.09M151.55,266.33V561.59l25.09,103.76m275,15.79,21.95-112.79V273.09M80.46,596.6l-10.84-305m485,312.51,9.48-317.44m42.83,71c-301.54-59.74-574.58,0-574.58,0m1.22,53.88L69.62,429.6s195.23,27.67,491.42,6c41.1-13.75,45.89-17.69,45.89-17.69M76.82,504.2s194.5,168,481.71,0M218.41,691.4,198,721.74s-14.63,23,5.22,29.25,45.34-44.56,45.34-44.56Zm160.91,22.8s25.49,50.82,45.34,44.55,5.22-29.25,5.22-29.25l-20.46-30.34Zm59.8-454.73-1.59-36.56s-1.92-27.17-21.6-20.4S406,265.3,406,265.3Zm-195.21-1.56s8.55-48.8-11.13-55.57-21.6,20.41-21.6,20.41l-1.6,36.56Z"/>
  <path id="Screws" class="cls-3" d="M234,721.71a17,17,0,1,1-17-17A17,17,0,0,1,234,721.71Zm-17,7V713.26m7.63,8H209.19m201.16-4.67a16.17,16.17,0,1,0,16.17,16.17A16.17,16.17,0,0,0,410.35,716.54Zm0,22.85V724.66m7.27,7.57H402.9m26.77-487.44a16.32,16.32,0,1,0-22.83-3.41A16.32,16.32,0,0,0,429.67,244.79ZM416,226.26l8.84,11.94m-10.45-1.78,11.95-8.83M242,236.34a17.07,17.07,0,1,0-23.87,3.57A17.06,17.06,0,0,0,242,236.34Zm-9.53-15.82L223.18,233m10.92-1.85-12.49-9.25"/>
  <defs>
    <script>
      let badge = document.querySelector("#goalieMask");

      function logMyId() {
      console.log(this.id);
      }

      badge.addEventListener("click", logMyId);
    </script>
  </defs>
</svg>
