<svg id="Helmet" xmlns="http://www.w3.org/2000/svg" width="694.61" height="796.07" viewBox="0 0 694.61 796.07">
  <defs>
    <style>
      .cls-1, .cls-4, .cls-5, .cls-6 {
        fill: #fff;
      }

      .cls-1, .cls-2, .cls-4, .cls-6, .cls-7 {
        stroke: #000;
      }

      .cls-1, .cls-2, .cls-3, .cls-4, .cls-5, .cls-6, .cls-7 {
        stroke-miterlimit: 10;
      }

      .cls-1 {
        stroke-width: 23px;
      }

      .cls-2, .cls-3, .cls-6 {
        stroke-width: 6px;
      }

      .cls-3, .cls-5 {
        stroke: #fff;
      }

      .cls-4 {
        stroke-width: 3px;
      }

      .cls-7 {
        fill: none;
        stroke-width: 2px;
      }

      #Helmet-2 { cursor: pointer;}
      #Helmet-2:hover { fill: #10CAFC !important; }
    </style>
  </defs>
  <path id="helmetInterior" class="cls-1" d="M222.13,332.43S337.59,137,333,294s-78.62,105.77-78.62,105.77Z"/>
  <path id="Helmet-2" data-name="Helmet" class="cls-2" d="M13.09,314.45S-2.1,176.33,4.79,153C25.92,81.27,99.88,18.64,114.21,15.62c13.8-2.9,200-26.41,249-.76,26.12,13.66,12.08,16.61,30.94,18.87,16.76,2,111.51,18.87,117,30.94a40,40,0,0,1,4.63,9.79,12.56,12.56,0,0,1-6.56,15.35c-2.71,1.26-4.48,3.8-2.6,8.82q.92,2.43,1.63,4.42a13.27,13.27,0,0,0,9.37,8.41,115.87,115.87,0,0,1,23,7.94l18.07,8.66,33.21,5.28,3.12.89a41.52,41.52,0,0,1,26.85,23.68c9.47,22.32,20.32,57.85-2,66,0,0-12.08,24.9-3.77,44.52,3.81,9-11.47,15.57-21.16,17A315.8,315.8,0,0,1,524.73,288c-18.14-1.44-60.28-5.71-64.89,33.21-4.38,36.87,25.65,137.34,25.65,137.34s-57.81,28.68-75.32,8.68c-12.51-14.31-30-100.22-38.91-148C368,301.7,350.88,296.52,333,296.45c-25.6-.11-55.91-3.38-64.84,8.95C256.87,321,254.39,387.13,253.9,423.89a62.66,62.66,0,0,1-23.54,48.21c-20.54,16.33-109.51,24-130.48-10.49,0,0,26.41-35.47-5.29-72.45ZM217.22,478.54s3.4,75.13,105.27,78.15S428.6,471.34,428.6,471.34l-18-7.21S407,526.59,327,534.05s-96.59-62.71-96.59-62.71Zm73.37-76.05s5.83,60.22,71.39,62.16,23.38-73.78,23.38-73.78l6,10.81s25,43.59-26.47,48.4S301.28,403,301.28,403Z"/>
  <path id="helmetDesigns" class="cls-3" d="M124.78,26.05l20.37,3s-17.67,4.85-18.86,6C112,49.44,86.88,101.45,99.12,120.38c6.15,9.5,46.79,9.05,46.79,9.05s-7.55,3.77-26.84,9.81c-61.54,18.11-67.49,0-67.49,0L100,58.41A172.88,172.88,0,0,1,124.78,26.05Zm261.42.11L302.76,139.62l27.11,3.9-14.31-11.69,75-104.12ZM524.36,77.74s-19.42,16.72-42,33.79c-25,18.89-34.61,20.17-64.49,35.76,0,0,73.1-3,94.78-5.78a280.1,280.1,0,0,1-25.42-28.89m-454.92,96c-1.94,12.94-2.63,37.81-2.63,50.63,0,17.35,10.57,63.39,45.28,81.5C47.34,307.18,47.51,263.35,51.58,226L82.52,206.4,41,201.93A7.89,7.89,0,0,0,32.32,208.6ZM622.84,223S536.51,248.25,441,253.19c-87.54,4.53-265.37-15.85-265.37-15.85m335.66-24.28.7-33.94-92.09,9.47Zm27.06-16.69.75,9L591.61,213l-20-37.51H533C538.16,184,537.56,185.05,538.32,196.37Z"/>
  <path id="helmetStrap" class="cls-2" d="M349,538.64s42.16,73,32.35,79-21.88,37.73-19.22,51.69,29.79,38.11,28.43,62.37S370.79,792,370.79,792l-28.68-15.09s11.32-34,15.85-40.75S347.4,703.71,333.13,684s6-43.7,13.53-63.26-39.26-74-39.26-74C321.74,558.06,349,538.64,349,538.64Z"/>
  <path id="helmetScrew" class="cls-4" d="M148.93,457.32a14.72,14.72,0,1,1-14.72-14.72A14.72,14.72,0,0,1,148.93,457.32Zm-14.72-7.25v13.74m6.34-6.9H126.8"/>
  <path id="CCM" class="cls-5" d="M85.48,172.22,80.26,167l38.43-2.09.52,12.55-8.89.52-.52-6.27-12.55,1,.52,14.65,10.72.52.79-4.18h9.93c1.05,9.41-8.1,9.93-8.1,9.93l-19.87,1.05-4.45-7.09v-11Zm47.22,1.84v11l4.45,7.09L157,191.06s9.15-.52,8.1-9.94h-9.93l-.79,4.19-10.72-.53-.52-14.64,12.55-1,.52,6.27,8.89-.52-.52-12.55-38.43,2.09,5.22,5.23ZM182,189.49l9.54-.82-.75-18.11,9.81,11.32,9.46-11.57.35,16.1L221,184.9l2-28.63-11,1-11.5,12.86L190,159.16l-12.46,1.09,3.93,3.21.48,18.92-6.39,7.67Z"/>
  <path id="Visor" class="cls-6" d="M667.29,271.31s37.05,24.9,19.69,139.6c-91.31,29.43-141.12,35.47-219.6,30.19-40.75-4.53-52.07-6.8-52.07-6.8L401,300s242.86,12.83,266.32-28.67c0,0-6-9.16-52.75-17.36"/>
  <path id="screwTop" class="cls-7" d="M438,332H425.36a5.66,5.66,0,1,0,0,11.32h12.05a9.9,9.9,0,0,1-1.48-5.23A10,10,0,0,1,438,332Zm31.13,0H454.61a10,10,0,0,1,.59,11.32h13.93a5.66,5.66,0,1,0,0-11.32Zm-22.82,1.19v9.68m4.46-4.87h-9.68m15.58.09a10,10,0,0,1-1.47,5.23,10.48,10.48,0,0,1-17.79,0,9.9,9.9,0,0,1-1.48-5.23A10,10,0,0,1,438,332a10.48,10.48,0,0,1,16.61,0A10,10,0,0,1,456.67,338.07Z"/>
  <path id="screwBottom" class="cls-7" d="M442.3,370.91H428.52a5.67,5.67,0,1,0,0,11.33h13.77a10.37,10.37,0,0,1,0-11.33Zm30,0H459.65a10.29,10.29,0,0,1,0,11.33h12.64a5.67,5.67,0,0,0,0-11.33Zm-21.32.57v9.68m4.47-4.87h-9.68m15.59.29a10.25,10.25,0,0,1-1.7,5.66,10.35,10.35,0,0,1-17.36,0,10.36,10.36,0,0,1,8.68-16,10.38,10.38,0,0,1,10.38,10.36Z"/>
  <defs>
    <script>
      let badge = document.querySelector("#Helmet");

      function logMyId() {
      console.log(this.id);
      }

      badge.addEventListener("click", logMyId);
    </script>
  </defs>
</svg>
